<?xml version="1.0" encoding="utf-8"?>
<!-- Generator: Adobe Illustrator 21.1.0, SVG Export Plug-In . SVG Version: 6.00 Build 0)  -->
<svg version="1.1" id="Layer_1" xmlns="http://www.w3.org/2000/svg" xmlns:xlink="http://www.w3.org/1999/xlink" x="0px" y="0px"
	 viewBox="0 0 24 24" style="enable-background:new 0 0 24 24;" xml:space="preserve">
<style type="text/css">
	.st0{fill:#818181;}
</style>
<path class="st0" d="M20,19.2L17.2,22H4V5H2v17v2h2h14l4-4V5h-2V19.2z M15,0h2v4h-2V0z M7,0h2v4H7V0z M0,1h6v2H0V1z M18,1v2h4l2-2
	H18z M10,1h4v2h-4V1z M15,11h-2v2h-2v-2H9V9h2V7h2v2h2V11z M15,18H9v-2h6V18z"/>
</svg>
