<?xml version="1.0" encoding="utf-8"?>
<!-- Generator: Adobe Illustrator 20.0.0, SVG Export Plug-In . SVG Version: 6.00 Build 0)  -->
<svg version="1.1" id="Layer_1" xmlns="http://www.w3.org/2000/svg" xmlns:xlink="http://www.w3.org/1999/xlink" x="0px" y="0px"
	 viewBox="0 0 24 24" style="enable-background:new 0 0 24 24;" xml:space="preserve">
<style type="text/css">
	.st0{fill:#808080;}
</style>
<path class="st0" d="M12,9.8c1.2,0,2.1,1,2.1,2.1c0,1.2-1,2.1-2.1,2.1c-1.2,0-2.1-1-2.1-2.1C9.9,10.8,10.8,9.8,12,9.8 M19.7,8.2
L19.7,8.2C19.5,8.2,19.2,8.1,19,8c0-0.2,0.1-0.4,0.1-0.5c0.6-2.8,0.2-5.1-1.1-5.9c-1.3-0.7-3.3,0-5.4,1.8C12.4,3.6,12.2,3.8,12,4
c-0.1-0.1-0.3-0.2-0.4-0.4C9.4,1.7,7.3,0.9,6,1.6C4.7,2.4,4.3,4.5,4.9,7.2C4.9,7.5,5,7.7,5.1,8C4.7,8.1,4.4,8.2,4.2,8.3
C1.6,9.2,0,10.5,0,12c0,1.5,1.7,3,4.4,3.9C4.6,15.9,4.8,16,5,16.1c-0.1,0.3-0.1,0.6-0.2,0.9c-0.5,2.6-0.1,4.7,1.1,5.5
c1.3,0.7,3.5,0,5.6-1.9c0.2-0.1,0.3-0.3,0.5-0.5c0.2,0.2,0.4,0.4,0.6,0.6c2,1.8,4.1,2.5,5.3,1.7c1.3-0.7,1.7-3,1.2-5.7
c0-0.2-0.1-0.4-0.1-0.6c0.2,0,0.3-0.1,0.4-0.1C22.2,15,24,13.5,24,12C24,10.5,22.3,9.1,19.7,8.2z M13.3,4.2c1.8-1.5,3.4-2.2,4.2-1.7
c0.8,0.5,1.1,2.3,0.6,4.8C18,7.4,18,7.6,18,7.7c-1-0.2-2.1-0.4-3.2-0.5c-0.7-0.9-1.3-1.8-2-2.5C12.9,4.5,13.1,4.4,13.3,4.2z
	M7.1,13.2c0.2,0.4,0.4,0.8,0.7,1.2c0.2,0.4,0.5,0.8,0.8,1.2c-0.8-0.1-1.5-0.2-2.2-0.4C6.5,14.6,6.8,13.9,7.1,13.2z M7.1,10.8
c-0.3-0.7-0.6-1.4-0.8-2.1C7,8.6,7.7,8.4,8.5,8.3C8.2,8.7,8,9.1,7.8,9.6C7.5,10,7.3,10.4,7.1,10.8z M7.6,12c0.3-0.7,0.7-1.3,1-1.9v0
C9,9.4,9.4,8.8,9.8,8.2c0.7-0.1,1.4-0.1,2.2-0.1c0.7,0,1.5,0,2.2,0.1c0.4,0.6,0.8,1.2,1.2,1.8c0.4,0.6,0.7,1.3,1,1.9
c-0.3,0.7-0.7,1.3-1,1.9l0,0c-0.4,0.6-0.7,1.3-1.2,1.9c-0.7,0.1-1.4,0.1-2.2,0.1c-0.7,0-1.5,0-2.2-0.1c-0.4-0.6-0.8-1.2-1.2-1.9
C8.3,13.3,7.9,12.7,7.6,12z M16.2,14.4c0.2-0.4,0.5-0.8,0.7-1.3h0c0.3,0.7,0.6,1.4,0.8,2.1c-0.7,0.2-1.4,0.3-2.2,0.4
C15.8,15.3,16,14.9,16.2,14.4z M16.9,10.8c-0.2-0.4-0.5-0.8-0.7-1.2v0c-0.2-0.4-0.5-0.8-0.7-1.2c0.8,0.1,1.5,0.2,2.2,0.4
C17.5,9.4,17.2,10.1,16.9,10.8z M12,5.4C12.5,6,13,6.5,13.4,7.1c-0.9,0-1.9,0-2.8,0C11.1,6.5,11.5,6,12,5.4z M6.5,2.5
C7.3,2,9.1,2.7,10.9,4.4c0.1,0.1,0.2,0.2,0.4,0.3c-0.7,0.7-1.4,1.6-2,2.5C8.1,7.3,7,7.5,6,7.7C6,7.5,5.9,7.2,5.9,7v0
C5.4,4.7,5.7,3,6.5,2.5z M5.3,15.1C5.1,15,4.9,15,4.7,14.9c-1.2-0.4-2.1-0.9-2.8-1.5C1.3,12.9,1,12.4,1,12c0-0.9,1.3-2,3.5-2.7
C4.8,9.1,5,9.1,5.3,9c0.3,1,0.7,2,1.2,3C6,13.1,5.6,14.1,5.3,15.1z M10.9,19.8c-0.9,0.8-1.9,1.4-2.7,1.7l0,0
c-0.7,0.3-1.3,0.3-1.7,0.1c-0.8-0.4-1.1-2.1-0.6-4.4C5.9,16.8,6,16.6,6,16.3c1,0.2,2.1,0.4,3.2,0.5c0.7,0.9,1.4,1.8,2.1,2.5
C11.2,19.5,11,19.6,10.9,19.8z M12,18.6c-0.5-0.5-1-1.1-1.4-1.7c0.5,0,0.9,0,1.4,0c0.5,0,1,0,1.4,0C13,17.5,12.5,18.1,12,18.6z
	M18.3,20c-0.1,0.8-0.4,1.3-0.8,1.5c-0.8,0.4-2.4-0.1-4.1-1.6c-0.2-0.2-0.4-0.4-0.6-0.6c0.7-0.7,1.4-1.6,2-2.6
c1.2-0.1,2.3-0.3,3.3-0.5c0,0.2,0.1,0.4,0.1,0.6v0C18.4,18.1,18.4,19.2,18.3,20z M19.1,14.9L19.1,14.9c-0.1,0-0.3,0.1-0.4,0.1
c-0.3-1-0.7-2-1.2-3c0.5-1,0.9-2,1.2-3c0.2,0.1,0.5,0.1,0.7,0.2C21.6,10,23,11.1,23,12C23,12.9,21.5,14.1,19.1,14.9z"/>
</svg>