<?xml version="1.0" encoding="utf-8"?>
<!-- Generator: Adobe Illustrator 14.0.0, SVG Export Plug-In . SVG Version: 6.00 Build 43363)  -->
<!DOCTYPE svg PUBLIC "-//W3C//DTD SVG 1.1//EN" "http://www.w3.org/Graphics/SVG/1.1/DTD/svg11.dtd">
<svg version="1.1" id="Layer_1" xmlns="http://www.w3.org/2000/svg" xmlns:xlink="http://www.w3.org/1999/xlink" x="0px" y="0px"
	 width="24px" height="24px" viewBox="0 0 24 24" enable-background="new 0 0 24 24" xml:space="preserve">
<path fill="#818181" d="M11,9h1v2h-1V9z M23,15h-1v5h0l-4,4H4H2v-2v-7H1V6h1V2V0h2h16h2v2v4h1V15z M4,6h16V2H4V6z M19,9v3h1V9V8h-4h-2
	v4h2V9h1v3h1V9H19z M12,8h-1H9v5h2v-1h1h1v-1V9V8H12z M7,9v3h1V9V8H7H4v0v1v3h2V9H7z M20,15H4v7h13.2l2.8-2.8V15z"/>
</svg>
