<?xml version="1.0" encoding="utf-8"?>
<!-- Generator: Adobe Illustrator 21.1.0, SVG Export Plug-In . SVG Version: 6.00 Build 0)  -->
<svg version="1.1" id="Layer_1" xmlns="http://www.w3.org/2000/svg" xmlns:xlink="http://www.w3.org/1999/xlink" x="0px" y="0px"
	 viewBox="0 0 24 24" style="enable-background:new 0 0 24 24;" xml:space="preserve">
<style type="text/css">
	.st0{fill:#818181;}
</style>
<path class="st0" d="M20,0H4H2v2v20v2h2h14l4-4V2V0H20z M20,19.2L17.2,22H4V2h16V19.2z M18,13.8c0-0.1-0.1-0.2-0.2-0.3
	c-0.2-0.3-0.8-0.4-1.6-0.4c-0.6,0-1.2,0-2,0.1c-0.3-0.2-0.7-0.4-0.9-0.6C12.6,11.9,12,11,11.7,10c0-0.1,0-0.2,0.1-0.3
	c0,0,0.4-2.3,0.3-3c0-0.1,0-0.1-0.1-0.2l0-0.1c-0.1-0.3-0.3-0.5-0.6-0.5l-0.2,0c-0.4,0-0.7,0.2-0.7,0.5c-0.2,0.9,0,2.2,0.5,4
	l-0.1,0.3c-0.3,0.8-0.7,1.6-1.1,2.3l0,0.1c-0.4,0.7-0.7,1.4-1,1.9l-0.3,0.2c0,0-0.6,0.3-0.7,0.4c-1.1,0.7-1.8,1.4-1.9,2
	c0,0.2,0,0.4,0.2,0.5l0.3,0.2c0.1,0.1,0.3,0.1,0.4,0.1c0.8,0,1.6-1,2.9-3.1c1.4-0.5,3-0.9,4.4-1.1c1.1,0.6,2.4,1,3.2,1
	c0.1,0,0.3,0,0.4,0c0.2,0,0.3-0.1,0.4-0.3C18,14.5,18,14.2,18,13.8z M6.4,17.6c0.1-0.4,0.7-1.2,1.5-1.8c0.1,0,0.2-0.2,0.3-0.3
	C7.4,16.9,6.8,17.5,6.4,17.6z M11.2,6.3c0.2,0,0.4,0.6,0.4,1.2c0,0.6-0.1,1-0.3,1.3c-0.1-0.5-0.2-1.2-0.2-1.6
	C11.1,7.2,11.1,6.3,11.2,6.3z M9.8,14.4c0.2-0.3,0.3-0.6,0.5-1c0.4-0.9,0.7-1.5,0.9-2.1c0.4,0.8,0.9,1.4,1.5,1.9
	c0.1,0.1,0.2,0.1,0.2,0.2C11.8,13.7,10.7,14,9.8,14.4z M17.6,14.3c-0.1,0-0.3,0.1-0.4,0.1c-0.4,0-1-0.2-1.8-0.5c0.3,0,0.6,0,0.8,0
	c0.4,0,0.6,0,1,0.1C17.6,14,17.6,14.2,17.6,14.3z"/>
</svg>
