<?xml version="1.0" encoding="utf-8"?>
<!-- Generator: Adobe Illustrator 21.0.2, SVG Export Plug-In . SVG Version: 6.00 Build 0)  -->
<svg version="1.1" id="logos" xmlns="http://www.w3.org/2000/svg" xmlns:xlink="http://www.w3.org/1999/xlink" x="0px" y="0px"
	 viewBox="0 0 678 61" style="enable-background:new 0 0 678 61;" xml:space="preserve">
<style type="text/css">
	.st0{fill:#5CE500;}
	.st1{fill:#4B4E52;}
</style>
<g>
	<path fill="#5CE500" d="M48.6,41.1c0,0.6-0.4,1.3-0.9,1.6l-12.5,7.2V22L11.1,8.1l12.5-7.2c0.5-0.3,1.3-0.3,1.8,0l23.2,13.4V41.1z
		 M29.8,25.1l-16.5-9.5c-0.5-0.3-1.3-0.3-1.8,0L0.4,22l17.4,10.1v20.1L29,45.8c0.5-0.3,0.9-1,0.9-1.6V25.1H29.8z M0.4,42.2l12.1,7
		v-14L0.4,42.2z"/>
	<path fill="#4B4E52" d="M75.2,14.3H62v35.6h5.8v-14h7.4c8,0,12.4-3.9,12.4-11C87.6,21.8,86.4,14.3,75.2,14.3 M81.6,25.1
		c0,4-2.1,5.7-7.2,5.7h-6.6V19.6h7.4C79.5,19.6,81.6,21.4,81.6,25.1 M104.9,24l0.4,0.2l-1,5.3l-0.7-0.2c-0.6-0.2-1.1-0.3-1.7-0.3
		c-5.4,0-5.9,4.3-5.9,9.6v11.3h-5.4V23.8h5.1V27c1.4-2.1,3-3.2,5.2-3.5C102.5,23.3,103.9,23.5,104.9,24 M118.2,23.2
		c-4.3,0-7.7,1.6-9.8,4.7c-2.3,3.2-2.6,7-2.6,9c0,8.3,4.9,13.6,12.5,13.6c9.2,0,12.5-7.4,12.5-13.8c0-3.7-1.1-7-3.1-9.4
		C125.4,24.7,122.2,23.2,118.2,23.2 M118.2,45.7c-4.2,0-6.9-3.4-6.9-8.8c0-5.5,2.6-8.9,6.9-8.9c4.2,0,6.9,3.4,6.9,8.8
		C125.1,42.3,122.5,45.7,118.2,45.7 M176.1,24l0.4,0.2l-1,5.3l-0.7-0.2c-0.6-0.2-1.1-0.3-1.7-0.3c-5.4,0-5.9,4.3-5.9,9.6v11.3h-5.4
		V23.8h5.1V27c1.4-2.1,3-3.2,5.2-3.5C173.6,23.3,175,23.5,176.1,24 M195.5,41.5l-0.1,0.3c-1.1,3.2-3.8,3.9-5.9,3.9
		c-4.1,0-6.7-2.7-7-7.1H201l0.1-0.5c0.1-0.6,0.1-1.5,0.1-2.1c0-0.2,0-0.3,0-0.5c-0.3-7.3-5-12.2-11.9-12.2c-4,0-7.3,1.6-9.5,4.5
		c-1.8,2.4-2.8,5.7-2.8,9.1c0,8.1,5,13.5,12.5,13.5c5.8,0,9.8-2.9,11.2-8.3l0.2-0.6C200.9,41.5,195.5,41.5,195.5,41.5z M182.7,33.9
		c0.5-3.6,2.9-5.9,6.5-5.9c2.7,0,5.9,1.6,6.3,5.9H182.7z M152,26c-1.7-1.8-4.1-2.7-6.9-2.7c-7.9,0-11.5,7-11.5,13.5
		c0,6.6,3.6,13.4,11.5,13.4c2.7,0,5-1,6.7-2.7c0,1.2,0,2.3-0.1,2.7c-0.3,4.3-2.4,6.3-6.5,6.3c-2.3,0-4.9-0.8-5.4-3.1l-0.1-0.5h-5.3
		l0.1,0.7c0.6,4.6,4.6,7.5,10.6,7.5c5.2,0,8.9-2,10.8-5.7c0.9-1.8,1.3-4.4,1.3-7.8V23.8H152V26z M145.4,45.2c-1.9,0-6.3-0.9-6.3-8.8
		c0-5.2,2.5-8.4,6.4-8.4c3.1,0,6.3,2.2,6.3,8.4C151.9,41.9,149.5,45.2,145.4,45.2 M226.1,42c0,4.2-3.5,8.4-11.2,8.4
		c-6.8,0-10.9-3-11.4-8.3l-0.1-0.6h5.3l0.1,0.4c0.7,3.2,3.7,3.9,6.2,3.9c2.7,0,5.6-0.9,5.6-3.3c0-1.2-0.8-2.1-2.4-2.6
		c-0.9-0.3-2.1-0.6-3.3-0.9c-2.1-0.6-4.3-1.2-5.6-1.7c-3.3-1.2-5.2-3.5-5.2-6.3c0-5.3,5.1-7.6,10.2-7.6c6.8,0,10.3,2.6,10.8,7.8v0.5
		h-5.2l-0.1-0.4c-0.5-3-3.5-3.5-5.3-3.5c-1.5,0-5,0.3-5,2.8c0,1.1,1,2,3,2.6c0.6,0.2,1.5,0.4,2.5,0.7c2.1,0.6,4.8,1.2,6.1,1.7
		C224.4,36.7,226.1,38.9,226.1,42 M251,42c0,4.2-3.5,8.4-11.2,8.4c-6.8,0-10.9-3-11.4-8.3l-0.1-0.6h5.3l0.1,0.4
		c0.7,3.2,3.7,3.9,6.2,3.9c2.7,0,5.6-0.9,5.6-3.3c0-1.2-0.8-2.1-2.4-2.6c-0.9-0.3-2.1-0.6-3.3-0.9c-2.1-0.6-4.3-1.2-5.6-1.7
		c-3.3-1.2-5.2-3.5-5.2-6.3c0-5.3,5.1-7.6,10.2-7.6c6.8,0,10.3,2.6,10.8,7.8v0.5h-5.2l-0.1-0.4c-0.5-3-3.5-3.5-5.3-3.5
		c-1.5,0-5,0.3-5,2.8c0,1.1,1,2,3,2.6c0.6,0.2,1.5,0.4,2.5,0.7c2.1,0.6,4.8,1.2,6.1,1.7C249.3,36.7,251,38.9,251,42 M255.3,26.6
		c-2,0-3.7-1.6-3.7-3.7c0-2.2,1.7-3.7,3.7-3.7c2,0,3.7,1.6,3.7,3.7S257.3,26.6,255.3,26.6 M255.3,19.8c-1.7,0-3,1.3-3,3.1
		c0,1.8,1.3,3.1,3,3.1s3-1.3,3-3.1C258.3,21,257,19.8,255.3,19.8 M254.9,23.5v1.2h-1.1v-3.9h1.8c0.9,0,1.4,0.5,1.4,1.4
		c0,0.6-0.3,1-0.8,1.2l0.9,1.4H256l-0.8-1.2h-0.3V23.5z M255.5,21.8h-0.6v0.9h0.6c0.3,0,0.5-0.2,0.5-0.4
		C256,22,255.8,21.8,255.5,21.8"/>
	<path fill="#4B4E52" d="M271.1,30.9l17.7-16h3.8l-18.7,16.8l19.2,18.2h-3.9l-18.1-17v17h-2.9v-35h2.9V30.9z M304.6,47.9
		c2.9,0,5-0.7,7.1-2.5v2.8c-1.9,1.5-4.4,2.2-7.4,2.2c-7.1,0-11.8-5-11.8-12.9c0-7.8,4.2-13.4,10.9-13.4c6.6,0,10,5,10,12.4v1h-18
		C295.4,44.3,299.4,47.9,304.6,47.9z M295.5,35.1h15.3c-0.2-4.4-2.3-8.6-7.3-8.6C299.4,26.6,296.2,29.7,295.5,35.1z M317.7,24.6h2.9
		v4c1.5-2.4,4.5-4.6,8.1-4.6c5.8,0,8.8,3.7,8.8,9.1v16.8h-2.8V33.5c0-3.9-2-6.8-6.5-6.8c-3.5,0-6.3,2.5-7.6,5.5v17.7h-2.9V24.6z
		 M360.4,46.1c-1.4,2.2-4.4,4.3-7.9,4.3c-7.5,0-11.1-6.2-11.1-13.2S345,24,352.5,24c3.5,0,6.4,2.1,7.9,4.3V12.9h2.8v37h-2.8V46.1z
		 M360.4,31.7c-1.7-3.2-4.6-5-7.6-5c-5.3,0-8.4,4.4-8.4,10.5s3.1,10.5,8.4,10.5c3.1,0,5.9-1.8,7.6-5V31.7z M378.8,50.4
		c-6.7,0-11.2-5.4-11.2-13.2S372.1,24,378.8,24c6.7,0,11.2,5.4,11.2,13.2C390,45.1,385.5,50.4,378.8,50.4z M378.8,26.6
		c-5,0-8.3,4.3-8.3,10.7s3.3,10.7,8.3,10.7c5.1,0,8.4-4.3,8.4-10.7S383.8,26.6,378.8,26.6z M403.4,36.1V14.9h2.9v20.8
		c0,8.2,4.4,12,10.5,12c6,0,10.5-3.8,10.5-12V14.9h2.9v21.2c0,9.6-5.9,14.3-13.5,14.3C409.3,50.4,403.4,45.7,403.4,36.1z
		 M439.5,49.9h-2.9v-35h2.9V49.9z M473.8,15.5c-0.7-0.4-1.6-0.6-2.6-0.6c-2.7,0-4.6,1.9-4.6,5.5v4.3h5.9v2.5h-5.9v22.7h-2.8V27h-4.1
		v-2.5h4.1v-4.6c0-4.6,3-7.7,7.1-7.7c1.1,0,2,0.2,2.9,0.5L473.8,15.5L473.8,15.5z M484.1,50.4c-6.7,0-11.2-5.4-11.2-13.2
		S477.4,24,484.1,24s11.2,5.4,11.2,13.2C495.3,45.1,490.8,50.4,484.1,50.4z M484.1,26.6c-5,0-8.3,4.3-8.3,10.7s3.3,10.7,8.3,10.7
		c5.1,0,8.4-4.3,8.4-10.7S489.1,26.6,484.1,26.6z M511.5,27.2c-0.7-0.3-1.4-0.5-2.3-0.5c-3.1,0-5.5,2.2-6.7,5.5v17.7h-2.9V24.6h2.9
		v4c1.1-2.5,3.7-4.6,6.8-4.6c1,0,1.7,0.2,2.2,0.3V27.2z M448.1,22.4c-2,0-3.7-1.6-3.7-3.7c0-2.2,1.7-3.7,3.7-3.7s3.7,1.6,3.7,3.7
		C451.8,20.8,450.1,22.4,448.1,22.4 M448.1,15.6c-1.7,0-3,1.3-3,3.1s1.3,3.1,3,3.1s3-1.3,3-3.1S449.7,15.6,448.1,15.6 M447.7,19.3
		v1.2h-1.1v-3.8h1.8c0.9,0,1.4,0.5,1.4,1.4c0,0.6-0.3,1-0.8,1.2l0.9,1.4h-1.2l-0.8-1.2h-0.2V19.3L447.7,19.3z M448.3,17.6h-0.6v0.9
		h0.6c0.3,0,0.5-0.2,0.5-0.4C448.8,17.8,448.6,17.6,448.3,17.6 M539,34.3c5.7-0.5,9.2-3.9,9.2-9.5c0-6.4-4.4-9.9-11.3-9.9h-12.2v35
		h2.8V34.3h8.3l10.4,15.5h3.4L539,34.3z M527.7,32.2v-0.2V17.7h9c5.3,0,8.5,2.6,8.5,7.2c0,4.6-3.2,7.2-8.5,7.2H527.7z M572.4,36.5
		c0-7.2-3.4-12.2-10.1-12.2c-6.7,0-11,5.7-11,13.4c0,7.9,4.8,12.9,11.8,12.9c3,0,5.5-0.7,7.4-2.3v-2.8c-2.1,1.8-4.2,2.5-7.1,2.5
		c-5.3,0-9.2-3.5-9.2-10.4h18V36.5z M554.4,35.2c0.7-5.5,3.9-8.5,8.1-8.5c4.9,0,7.1,4.1,7.2,8.5H554.4z M585.1,24.3
		c-3.2,0-6,0.9-7.6,2.1V29c2.1-1.4,4.4-2.3,7.4-2.3c3.9,0,6.4,2.3,6.4,5.7v5.1c-1.1-1.2-3.9-2.6-6.9-2.6c-5.3,0-9.5,3-9.5,7.8
		s4.2,7.8,9.4,7.8c3.2,0,6-1.4,7.1-2.8v2.5h2.6V32.4C594,27.3,590.4,24.3,585.1,24.3z M591.1,44.2c-0.9,2.1-3.7,3.7-6.7,3.7
		c-3.5,0-6.9-1.8-6.9-5.5c0-3.7,3.4-5.3,6.9-5.3c3,0,6,1.6,6.7,3.7V44.2z M610,24.3c2.5,0,4.9,0.7,6.7,2.3v2.8
		c-1.9-1.8-4.1-2.6-6.5-2.6c-4.9,0-9,3.9-9,10.6s4.1,10.6,9,10.6c2.5,0,4.6-0.7,6.5-2.6v2.8c-1.8,1.6-4.2,2.3-6.7,2.3
		c-6.7,0-11.8-5.1-11.8-13.2C598.4,29.4,603.3,24.3,610,24.3z M633.7,24.8v2.5h-6v22.8h-2.8V27.3h-5.5v-2.5h5.5v-6.5h2.8v6.5H633.7z
		"/>
</g>
</svg>
