<?xml version="1.0" encoding="utf-8"?>
<!-- Generator: Adobe Illustrator 22.0.1, SVG Export Plug-In . SVG Version: 6.00 Build 0)  -->
<svg version="1.1" id="Layer_1" xmlns="http://www.w3.org/2000/svg" xmlns:xlink="http://www.w3.org/1999/xlink" x="0px" y="0px"
	 viewBox="0 0 678 61" style="enable-background:new 0 0 678 61;" xml:space="preserve">
<style type="text/css">
	.st0{fill:#4B4E52;}
	.st1{fill:#5CE500;}
</style>
<g>
	<g>
		<g>
			<path class="st0" d="M273.8,30.6l17.9-16.1h3.9l-18.9,17L296,49.9h-3.9l-18.3-17.2v17.2h-2.9V14.5h2.9L273.8,30.6L273.8,30.6z"/>
			<path class="st0" d="M307.7,47.9c2.9,0,5-0.7,7.2-2.5v2.8c-1.9,1.6-4.4,2.2-7.4,2.2c-7.1,0-11.9-5.1-11.9-13.1
				c0-7.9,4.3-13.5,11.1-13.5c6.7,0,10.1,5.1,10.1,12.5v1h-18.4C298.3,44.2,302.4,47.9,307.7,47.9z M298.4,34.9h15.5
				c-0.2-4.5-2.3-8.6-7.4-8.6C302.4,26.3,299.1,29.4,298.4,34.9z"/>
			<path class="st0" d="M320.8,24.3h2.9v4.1c1.6-2.4,4.6-4.6,8.2-4.6c5.8,0,8.9,3.7,8.9,9.2v16.9H338V33.3c0-4-2-6.9-6.6-6.9
				c-3.5,0-6.4,2.5-7.7,5.5v17.9h-2.9V24.3z"/>
			<path class="st0" d="M364.1,46.1c-1.4,2.2-4.4,4.3-8,4.3c-7.5,0-11.2-6.2-11.2-13.3s3.6-13.3,11.2-13.3c3.5,0,6.5,2.1,8,4.3V12.4
				h2.8v37.5h-2.8V46.1z M364.1,31.5c-1.7-3.3-4.6-5.1-7.7-5.1c-5.4,0-8.5,4.5-8.5,10.7s3.2,10.7,8.5,10.7c3.1,0,6-1.8,7.7-5.1V31.5
				z"/>
			<path class="st0" d="M382.6,50.4c-6.7,0-11.3-5.4-11.3-13.3s4.6-13.3,11.3-13.3c6.8,0,11.4,5.4,11.4,13.3
				C393.9,45,389.4,50.4,382.6,50.4z M382.6,26.3c-5.1,0-8.4,4.3-8.4,10.8s3.3,10.8,8.4,10.8s8.5-4.3,8.5-10.8
				S387.7,26.3,382.6,26.3z"/>
			<path class="st0" d="M407.5,35.9V14.5h2.9v21c0,8.3,4.5,12.2,10.6,12.2s10.7-3.9,10.7-12.2v-21h2.9v21.4c0,9.7-6,14.5-13.6,14.5
				S407.5,45.7,407.5,35.9z"/>
			<path class="st0" d="M444,49.9h-3V14.5h2.9v35.4H444z"/>
			<path class="st0" d="M478.7,15.1c-0.7-0.4-1.6-0.6-2.6-0.6c-2.7,0-4.7,2-4.7,5.5v4.3h6v2.5h-6v23.1h-2.8V26.8h-4.1v-2.5h4.1v-4.6
				c0-4.7,3.1-7.8,7.2-7.8c1.1,0,2,0.2,2.9,0.5V15.1z"/>
			<path class="st0" d="M489,50.4c-6.7,0-11.3-5.4-11.3-13.3s4.6-13.3,11.3-13.3c6.8,0,11.4,5.4,11.4,13.3S495.8,50.4,489,50.4z
				 M489,26.3c-5.1,0-8.4,4.3-8.4,10.8s3.3,10.8,8.4,10.8s8.5-4.3,8.5-10.8S494.2,26.3,489,26.3z"/>
			<path class="st0" d="M516.8,26.9c-0.7-0.3-1.4-0.5-2.4-0.5c-3.1,0-5.6,2.2-6.8,5.5v17.9h-2.9V24.3h2.9v4.1
				c1.2-2.5,3.7-4.6,6.9-4.6c1,0,1.7,0.2,2.2,0.3L516.8,26.9L516.8,26.9z"/>
			<path class="st0" d="M544,49.9l-13.9-35.4h3.1l12.2,31.4l12.3-31.4h3l-14,35.4H544z"/>
			<path class="st0" d="M581.5,49.9h-2.8v-4.1c-1.6,2.4-4.5,4.6-8.1,4.6c-5.8,0-8.9-3.7-8.9-9.2V24.3h2.8v16.5c0,4,2,6.9,6.6,6.9
				c3.5,0,6.3-2.5,7.6-5.5V24.3h2.8L581.5,49.9L581.5,49.9z"/>
			<path class="st0" d="M598,47.9c2.9,0,5-0.7,7.2-2.5v2.8c-1.9,1.6-4.4,2.2-7.4,2.2c-7.1,0-11.9-5.1-11.9-13.1
				c0-7.9,4.3-13.5,11.1-13.5c6.7,0,10.1,5.1,10.1,12.5v1h-18.4C588.7,44.2,592.7,47.9,598,47.9z M588.8,34.9h15.5
				c-0.2-4.5-2.3-8.6-7.4-8.6C592.7,26.3,589.5,29.4,588.8,34.9z"/>
		</g>
		<path class="st0" d="M452.7,26.1c-2,0-3.7-1.6-3.7-3.8s1.7-3.8,3.7-3.8s3.7,1.6,3.7,3.8C456.5,24.5,454.8,26.1,452.7,26.1
			 M452.7,19.2c-1.7,0-3,1.3-3,3.1c0,1.8,1.4,3.1,3,3.1c1.7,0,3-1.3,3-3.1C455.8,20.5,454.4,19.2,452.7,19.2 M452.3,23v1.3h-1.1v-4
			h1.9c0.9,0,1.5,0.5,1.5,1.4c0,0.6-0.3,1-0.8,1.2l0.9,1.4h-1.2l-0.8-1.3H452.3z M452.9,21.2h-0.6v0.9h0.6c0.3,0,0.5-0.2,0.5-0.4
			C453.4,21.4,453.2,21.2,452.9,21.2"/>
	</g>
</g>
<path class="st1" d="M48.8,40.9c0,0.6-0.4,1.3-0.9,1.6l-12.7,7.3V21.6L10.8,7.5l12.7-7.3c0.5-0.3,1.3-0.3,1.8,0l23.5,13.6V40.9z
	 M29.8,24.7L13.1,15c-0.5-0.3-1.3-0.3-1.8,0L0,21.6l17.6,10.2v20.4l11.3-6.5c0.5-0.3,0.9-1,0.9-1.6C29.8,44.1,29.8,24.7,29.8,24.7z
	 M0,42l12.2,7V34.9L0,42z"/>
<g>
	<path class="st0" d="M75.7,13.8H62.4v36h5.9V35.7h7.4c8.1,0,12.5-3.9,12.5-11.1C88.2,21.3,87,13.8,75.7,13.8 M82.2,24.7
		c0,4.1-2.1,5.7-7.3,5.7h-6.7V19.1h7.4C80.1,19.1,82.2,20.9,82.2,24.7 M105.8,23.6l0.4,0.2l-1,5.3l-0.7-0.2
		c-0.6-0.2-1.1-0.3-1.7-0.3c-5.5,0-6,4.4-6,9.7v11.5h-5.5V23.3h5.1v3.2c1.4-2.1,3.1-3.3,5.3-3.5C103.3,22.8,104.7,23,105.8,23.6
		 M119.2,22.8c-4.3,0-7.7,1.6-10,4.7c-2.3,3.3-2.7,7.1-2.7,9.1c0,8.4,5,13.8,12.6,13.8c9.3,0,12.6-7.5,12.6-14
		c0-3.7-1.1-7.1-3.1-9.5C126.5,24.2,123.2,22.8,119.2,22.8 M119.2,45.5c-4.3,0-6.9-3.4-6.9-8.9s2.7-9,6.9-9c4.2,0,7,3.5,7,8.9
		C126.2,42.1,123.5,45.5,119.2,45.5 M177.8,23.6l0.4,0.2l-1,5.3l-0.7-0.2c-0.6-0.2-1.1-0.3-1.7-0.3c-5.5,0-6,4.4-6,9.7v11.5h-5.5
		V23.3h5.1v3.2c1.4-2.1,3.1-3.3,5.3-3.5C175.3,22.8,176.7,23,177.8,23.6 M197.4,41.3l-0.1,0.3c-1.1,3.3-3.9,3.9-6,3.9
		c-4.1,0-6.8-2.7-7.1-7.2H203l0.1-0.5c0.1-0.6,0.1-1.5,0.1-2.1c0-0.2,0-0.3,0-0.5c-0.3-7.4-5.1-12.4-12-12.4c-4,0-7.3,1.6-9.6,4.6
		c-1.8,2.4-2.8,5.8-2.8,9.2c0,8.2,5.1,13.7,12.6,13.7c5.8,0,9.9-3,11.3-8.4l0.2-0.6C202.9,41.3,197.4,41.3,197.4,41.3z M184.5,33.6
		c0.5-3.7,3-6,6.5-6c2.7,0,5.9,1.6,6.4,6H184.5z M153.4,25.6c-1.8-1.8-4.1-2.8-7-2.8c-8,0-11.7,7.1-11.7,13.6
		c0,6.7,3.6,13.5,11.7,13.5c2.7,0,5.1-1,6.8-2.8c0,1.2,0,2.3-0.1,2.7c-0.3,4.4-2.4,6.4-6.6,6.4c-2.3,0-4.9-0.8-5.4-3.1l-0.1-0.5
		h-5.4l0.1,0.7c0.6,4.7,4.7,7.6,10.7,7.6c5.3,0,9-2,10.9-5.8c0.9-1.8,1.3-4.5,1.3-7.9v-24h-5.2V25.6z M146.8,45.1
		c-1.9,0-6.3-0.9-6.3-8.9c0-5.3,2.5-8.5,6.5-8.5c3.1,0,6.4,2.2,6.4,8.5C153.3,41.7,150.9,45.1,146.8,45.1 M228.3,41.8
		c0,4.2-3.5,8.4-11.3,8.4c-6.9,0-11-3-11.6-8.4l-0.1-0.6h5.4l0.1,0.4c0.7,3.3,3.8,3.9,6.3,3.9c2.7,0,5.6-0.9,5.6-3.3
		c0-1.2-0.8-2.1-2.4-2.6c-1-0.3-2.1-0.6-3.4-1c-2.1-0.6-4.3-1.2-5.7-1.7c-3.4-1.2-5.3-3.5-5.3-6.4c0-5.3,5.2-7.7,10.3-7.7
		c6.9,0,10.4,2.6,10.9,7.9v0.5h-5.3L222,31c-0.5-3.1-3.6-3.5-5.4-3.5c-1.5,0-5.1,0.3-5.1,2.8c0,1.2,1,2,3,2.6
		c0.6,0.2,1.5,0.4,2.5,0.7c2.2,0.6,4.8,1.3,6.2,1.7C226.6,36.4,228.3,38.6,228.3,41.8 M253.6,41.8c0,4.2-3.5,8.4-11.3,8.4
		c-6.9,0-11-3-11.6-8.4l-0.1-0.6h5.4l0.1,0.4c0.7,3.3,3.8,3.9,6.3,3.9c2.7,0,5.6-0.9,5.6-3.3c0-1.2-0.8-2.1-2.4-2.6
		c-1-0.3-2.1-0.6-3.4-1c-2.1-0.6-4.3-1.2-5.7-1.7c-3.4-1.2-5.3-3.5-5.3-6.4c0-5.3,5.2-7.7,10.3-7.7c6.9,0,10.4,2.6,10.9,7.9v0.5
		h-5.3l-0.1-0.4c-0.5-3.1-3.6-3.5-5.4-3.5c-1.5,0-5.1,0.3-5.1,2.8c0,1.2,1,2,3,2.6c0.6,0.2,1.5,0.4,2.5,0.7c2.2,0.6,4.8,1.3,6.2,1.7
		C251.9,36.4,253.6,38.6,253.6,41.8"/>
	<path class="st0" d="M257.9,26.2c-2,0-3.7-1.6-3.7-3.8s1.7-3.8,3.7-3.8s3.7,1.6,3.7,3.8S259.9,26.2,257.9,26.2 M257.9,19.3
		c-1.7,0-3,1.3-3,3.1c0,1.8,1.4,3.1,3,3.1c1.7,0,3-1.3,3-3.1C261,20.6,259.6,19.3,257.9,19.3 M257.5,23.1v1.3h-1.1v-4h1.9
		c0.9,0,1.5,0.5,1.5,1.4c0,0.6-0.3,1-0.8,1.2l0.9,1.4h-1.2l-0.8-1.3H257.5z M258.1,21.3h-0.6v0.9h0.6c0.3,0,0.5-0.2,0.5-0.4
		C258.6,21.5,258.4,21.3,258.1,21.3"/>
</g>
</svg>
