<?xml version="1.0" encoding="utf-8"?>
<!-- Generator: Adobe Illustrator 22.0.1, SVG Export Plug-In . SVG Version: 6.00 Build 0)  -->
<svg version="1.1" id="Layer_1" xmlns="http://www.w3.org/2000/svg" xmlns:xlink="http://www.w3.org/1999/xlink" x="0px" y="0px"
	 viewBox="0 0 410 48" style="enable-background:new 0 0 410 48;" xml:space="preserve">
<style type="text/css">
	.st0{fill:#4B4E52;}
</style>
<g>
	<g>
		<g>
			<path class="st0" d="M3,18.7L20.7,2.6h3.8l-18.8,17L25,37.8h-3.8L3,20.7v17.1H0V2.6h3V18.7z"/>
			<path class="st0" d="M36.9,35.8c2.9,0,5-0.7,7.2-2.6v2.8c-1.9,1.5-4.4,2.2-7.4,2.2c-7.1,0.1-11.8-5-11.8-13
				c0-7.8,4.2-13.5,11-13.5c6.6,0,10.1,5,10.1,12.5v1H27.6C27.6,32.2,31.6,35.8,36.9,35.8z M27.7,23h15.5c-0.2-4.5-2.3-8.6-7.4-8.6
				C31.6,14.4,28.4,17.4,27.7,23z"/>
			<path class="st0" d="M50.2,12.3h2.9v4.1c1.5-2.4,4.6-4.6,8.2-4.6c5.8,0,8.9,3.8,8.9,9.1v16.9h-2.8V21.4c0-4-2-6.9-6.6-6.9
				c-3.5,0-6.4,2.5-7.7,5.5v17.8h-2.9C50.2,37.8,50.2,12.3,50.2,12.3z"/>
			<path class="st0" d="M93.4,34.1c-1.4,2.2-4.4,4.3-7.9,4.3c-7.5,0-11.1-6.2-11.1-13.3S78,11.8,85.5,11.8c3.5,0,6.5,2.2,7.9,4.3
				V0.5h2.8v37.4h-2.8V34.1z M93.4,19.5c-1.8-3.3-4.6-5-7.7-5c-5.4,0-8.5,4.5-8.5,10.6s3.2,10.6,8.5,10.6c3.1,0,6-1.8,7.7-5V19.5z"
				/>
			<path class="st0" d="M112.1,38.4c-6.7,0-11.3-5.4-11.3-13.3s4.6-13.3,11.3-13.3c6.8,0,11.4,5.4,11.4,13.3S118.9,38.4,112.1,38.4z
				 M112.1,14.4c-5,0-8.4,4.3-8.4,10.7s3.4,10.7,8.4,10.7c5.1,0,8.5-4.3,8.5-10.7C120.6,18.7,117.2,14.4,112.1,14.4z"/>
			<path class="st0" d="M137,24V2.6h3v21c0,8.2,4.5,12.2,10.6,12.2c6.1,0,10.6-3.8,10.6-12.2v-21h3V24c0,9.7-6,14.4-13.6,14.4
				C142.9,38.4,137,33.7,137,24z"/>
			<path class="st0" d="M173.4,37.9h-3V2.6h3V37.9z"/>
			<path class="st0" d="M208.1,3.2c-0.7-0.4-1.6-0.6-2.6-0.6c-2.7,0-4.6,1.9-4.6,5.5v4.3h6v2.5h-6.1v23H198V14.8h-4.2v-2.5h4.2V7.8
				c0-4.6,3-7.8,7.2-7.8c1.1,0,2,0.2,2.9,0.5V3.2z"/>
			<path class="st0" d="M218.6,38.4c-6.7,0-11.3-5.4-11.3-13.3s4.6-13.3,11.3-13.3c6.8,0,11.4,5.4,11.4,13.3
				C229.9,33,225.4,38.4,218.6,38.4z M218.6,14.4c-5,0-8.4,4.3-8.4,10.7s3.4,10.7,8.4,10.7c5.1,0,8.5-4.3,8.5-10.7
				C227,18.7,223.7,14.4,218.6,14.4z"/>
			<path class="st0" d="M246.4,15c-0.7-0.3-1.4-0.5-2.3-0.5c-3.1,0-5.6,2.2-6.8,5.5v17.8h-2.9V12.3h2.9v4.1c1.1-2.6,3.8-4.6,6.9-4.6
				c1,0,1.7,0.2,2.2,0.3V15z"/>
			<path class="st0" d="M273.6,37.9L259.7,2.6h3l12.2,31.3l12.3-31.3h3l-14,35.3L273.6,37.9L273.6,37.9z"/>
			<path class="st0" d="M311.1,37.9h-2.8v-4.1c-1.5,2.4-4.5,4.6-8.1,4.6c-5.8,0-8.9-3.8-8.9-9.1v-17h2.8v16.5c0,4,2,6.9,6.6,6.9
				c3.5,0,6.3-2.5,7.6-5.5V12.3h2.8V37.9z"/>
			<path class="st0" d="M327.8,35.8c2.9,0,5-0.7,7.2-2.6v2.8c-1.9,1.5-4.4,2.2-7.4,2.2c-7.1,0-11.9-5-11.9-13
				c0-7.8,4.2-13.5,11-13.5c6.6,0,10.1,5,10.1,12.5v1h-18.3C318.5,32.2,322.5,35.8,327.8,35.8z M318.6,23H334
				c-0.2-4.5-2.3-8.6-7.4-8.6C322.5,14.4,319.3,17.4,318.6,23z"/>
		</g>
		<path class="st0" d="M181.4,14.2c-2,0-3.7-1.6-3.7-3.8s1.7-3.8,3.7-3.8s3.7,1.6,3.7,3.8C185.1,12.6,183.4,14.2,181.4,14.2
			 M181.4,7.3c-1.7,0-3,1.3-3,3.1s1.4,3.1,3,3.1s3-1.3,3-3.1S183.1,7.3,181.4,7.3 M181,11v1.3h-1.1V8.4h1.8c0.9,0,1.4,0.5,1.4,1.4
			c0,0.6-0.3,1-0.7,1.2l0.9,1.4h-1.2l-0.7-1.3C181.4,11,181,11,181,11z M181.6,9.3H181v0.9h0.6c0.3,0,0.5-0.2,0.5-0.4
			C182.2,9.5,181.9,9.3,181.6,9.3"/>
	</g>
</g>
</svg>
