<?xml version="1.0" encoding="utf-8"?>
<!-- Generator: Adobe Illustrator 21.0.2, SVG Export Plug-In . SVG Version: 6.00 Build 0)  -->
<svg version="1.1" id="logos" xmlns="http://www.w3.org/2000/svg" xmlns:xlink="http://www.w3.org/1999/xlink" x="0px" y="0px"
	 viewBox="0 0 678 61" style="enable-background:new 0 0 678 61;" xml:space="preserve">
<style type="text/css">
	.st0{fill:#5CE500;}
	.st1{fill:#4B4E52;}
</style>
<g>
	<path class="st0" d="M48.6,41.1c0,0.6-0.4,1.3-0.9,1.6l-12.5,7.2V22L11.1,8.1l12.5-7.2c0.5-0.3,1.3-0.3,1.8,0l23.2,13.4V41.1z
		 M29.8,25.1l-16.5-9.5c-0.5-0.3-1.3-0.3-1.8,0L0.4,22l17.4,10.1l0,20.1l11.2-6.4c0.5-0.3,0.9-1,0.9-1.6V25.1z M0.4,42.2l12.1,7
		V35.2L0.4,42.2z"/>
	<path class="st1" d="M271,30.9l17.7-16h3.8l-18.7,16.8l19.2,18.2h-3.8l-18.1-17v17h-2.9v-35h2.9V30.9z M304.5,47.9
		c2.9,0,5-0.7,7.1-2.5v2.8c-1.9,1.5-4.4,2.2-7.4,2.2c-7.1,0-11.8-5-11.8-12.9c0-7.8,4.2-13.4,10.9-13.4c6.6,0,10,5,10,12.4v1h-18.2
		C295.2,44.3,299.2,47.9,304.5,47.9z M295.4,35.1h15.3c-0.2-4.4-2.3-8.6-7.3-8.6C299.2,26.6,296,29.7,295.4,35.1z M317.5,24.6h2.9v4
		c1.5-2.4,4.5-4.6,8.1-4.6c5.8,0,8.8,3.7,8.8,9.1v16.8h-2.8V33.5c0-3.9-2-6.8-6.5-6.8c-3.5,0-6.3,2.5-7.6,5.5v17.7h-2.9V24.6z
		 M360.3,46.1c-1.4,2.2-4.4,4.3-7.9,4.3c-7.5,0-11.1-6.2-11.1-13.2s3.6-13.2,11.1-13.2c3.5,0,6.4,2.1,7.9,4.3V12.8h2.8v37.1h-2.8
		V46.1z M360.3,31.7c-1.7-3.2-4.6-5-7.6-5c-5.3,0-8.4,4.4-8.4,10.5s3.1,10.5,8.4,10.5c3.1,0,5.9-1.8,7.6-5V31.7z M378.6,50.4
		c-6.7,0-11.2-5.4-11.2-13.2c0-7.8,4.5-13.2,11.2-13.2c6.7,0,11.2,5.4,11.2,13.2C389.8,45.1,385.3,50.4,378.6,50.4z M378.6,26.6
		c-5,0-8.3,4.3-8.3,10.7s3.3,10.7,8.3,10.7c5.1,0,8.4-4.3,8.4-10.7S383.7,26.6,378.6,26.6z M403.2,36.1V14.9h2.9v20.8
		c0,8.2,4.4,12,10.5,12c6,0,10.5-3.8,10.5-12V14.9h2.9v21.2c0,9.6-5.9,14.3-13.5,14.3C409.1,50.4,403.2,45.7,403.2,36.1z
		 M439.3,49.9h-2.9v-35h2.9V49.9z M473.6,15.5c-0.7-0.4-1.6-0.6-2.6-0.6c-2.7,0-4.6,1.9-4.6,5.5v4.3h5.9V27h-5.9v22.9h-2.8V27h-4.1
		v-2.5h4.1V20c0-4.6,3-7.7,7.1-7.7c1.1,0,2,0.2,2.9,0.5V15.5z M483.9,50.4c-6.7,0-11.2-5.4-11.2-13.2c0-7.8,4.5-13.2,11.2-13.2
		c6.7,0,11.2,5.4,11.2,13.2C495.1,45.1,490.6,50.4,483.9,50.4z M483.9,26.6c-5,0-8.3,4.3-8.3,10.7s3.3,10.7,8.3,10.7
		c5.1,0,8.4-4.3,8.4-10.7S489,26.6,483.9,26.6z M511.3,27.2c-0.7-0.3-1.4-0.5-2.3-0.5c-3.1,0-5.5,2.2-6.7,5.5v17.7h-2.9V24.6h2.9v4
		c1.1-2.5,3.7-4.6,6.8-4.6c1,0,1.7,0.2,2.2,0.3V27.2z M541,14.9l13.9,35H552l-4.6-11.5h-15.5l-4.5,11.5h-2.9l13.9-35H541z
		 M532.9,35.8h13.5l-6.7-17.1L532.9,35.8z M558,24.6h2.9v4c1.5-2.4,4.5-4.6,8.1-4.6c5.8,0,8.8,3.7,8.8,9.1v16.8H575V33.5
		c0-3.9-2-6.8-6.5-6.8c-3.5,0-6.3,2.5-7.6,5.5v17.7H558V24.6z M600.6,45.7c-1.4,2.1-4.3,4.2-7.8,4.2c-7.4,0-10.9-6.1-10.9-12.9
		c0-6.8,3.5-12.9,10.9-12.9c3.5,0,6.4,2.1,7.8,4.2v-3.7h2.8v23.5c0,8.4-5.6,12-11.6,12c-3.2,0-6-1-7.9-2.4v-3.2
		c2.5,2.3,5.2,3.1,7.9,3.1c5,0,8.8-3,8.8-9.3V45.7z M600.6,31.6c-1.7-3.1-4.5-4.9-7.5-4.9c-5.2,0-8.3,4.3-8.3,10.3
		c0,6,3.1,10.3,8.3,10.3c3,0,5.9-1.8,7.5-4.9V31.6z M628.6,49.9h-2.8v-4c-1.5,2.4-4.4,4.6-8,4.6c-5.8,0-8.8-3.7-8.8-9.1V24.6h2.8
		v16.4c0,3.9,2,6.8,6.5,6.8c3.5,0,6.3-2.5,7.5-5.5V24.6h2.8V49.9z M637.2,49.9h-2.9V12.8h2.9V49.9z M657.3,32.3
		c0-3.4-2.4-5.6-6.3-5.6c-2.9,0-5.3,0.9-7.4,2.2v-2.7c1.7-1.1,4.5-2.1,7.6-2.1c5.4,0,8.7,3.1,8.7,8.1v17.7h-2.7v-2.4
		c-1.1,1.3-3.9,2.8-7,2.8c-5.1,0-9.3-3-9.3-7.8c0-4.7,4.2-7.8,9.5-7.8c3,0,5.8,1.4,6.9,2.7V32.3z M657.3,40.9
		c-0.8-2.2-3.6-3.8-6.7-3.8c-3.6,0-6.9,1.8-6.9,5.4c0,3.6,3.3,5.4,6.9,5.4c3.1,0,5.9-1.6,6.7-3.8V40.9z M677.6,27.2
		c-0.7-0.3-1.4-0.5-2.3-0.5c-3.1,0-5.5,2.2-6.7,5.5v17.7h-2.9V24.6h2.9v4c1.1-2.5,3.7-4.6,6.8-4.6c1,0,1.7,0.2,2.2,0.3V27.2z
		 M447.9,26.6c-2,0-3.7-1.6-3.7-3.7c0-2.2,1.7-3.7,3.7-3.7c2,0,3.7,1.6,3.7,3.7C451.6,25,449.9,26.6,447.9,26.6 M447.9,19.8
		c-1.7,0-3,1.3-3,3.1c0,1.8,1.3,3.1,3,3.1c1.7,0,3-1.3,3-3.1C450.9,21,449.6,19.8,447.9,19.8 M447.5,23.5v1.2h-1.1v-3.9h1.8
		c0.9,0,1.4,0.5,1.4,1.4c0,0.6-0.3,1-0.8,1.2l0.9,1.4h-1.2l-0.8-1.2H447.5z M448.1,21.8h-0.6v0.9h0.6c0.3,0,0.5-0.2,0.5-0.4
		C448.6,22,448.4,21.8,448.1,21.8 M75.2,14.3H62v35.6h5.8v-14h7.4c8,0,12.4-3.9,12.4-11C87.6,21.8,86.4,14.3,75.2,14.3 M81.6,25.1
		c0,4-2.1,5.7-7.2,5.7h-6.6V19.6h7.4C79.5,19.6,81.6,21.4,81.6,25.1 M104.9,24l0.4,0.2l-1,5.3l-0.7-0.2c-0.6-0.2-1.1-0.3-1.7-0.3
		c-5.4,0-5.9,4.3-5.9,9.6v11.3h-5.4V23.8h5.1v3.2c1.4-2.1,3-3.2,5.2-3.5C102.5,23.3,103.9,23.5,104.9,24 M118.2,23.2
		c-4.3,0-7.7,1.6-9.8,4.7c-2.3,3.2-2.6,7-2.6,9c0,8.3,4.9,13.6,12.5,13.6c9.2,0,12.5-7.4,12.5-13.8c0-3.7-1.1-7-3.1-9.4
		C125.4,24.7,122.2,23.2,118.2,23.2 M118.2,45.7c-4.2,0-6.9-3.4-6.9-8.8c0-5.5,2.6-8.9,6.9-8.9c4.2,0,6.9,3.4,6.9,8.8
		C125.1,42.3,122.5,45.7,118.2,45.7 M176.1,24l0.4,0.2l-1,5.3l-0.7-0.2c-0.6-0.2-1.1-0.3-1.7-0.3c-5.4,0-5.9,4.3-5.9,9.6v11.3h-5.4
		V23.8h5.1v3.2c1.4-2.1,3-3.2,5.2-3.5C173.6,23.3,175,23.5,176.1,24 M195.5,41.5l-0.1,0.3c-1.1,3.2-3.8,3.9-5.9,3.9
		c-4.1,0-6.7-2.7-7-7.1H201l0.1-0.5c0.1-0.6,0.1-1.5,0.1-2.1c0-0.2,0-0.3,0-0.5c-0.3-7.3-5-12.2-11.9-12.2c-4,0-7.3,1.6-9.5,4.5
		c-1.8,2.4-2.8,5.7-2.8,9.1c0,8.1,5,13.5,12.5,13.5c5.8,0,9.8-2.9,11.2-8.3l0.2-0.6H195.5z M182.7,33.9c0.5-3.6,2.9-5.9,6.5-5.9
		c2.7,0,5.9,1.6,6.3,5.9H182.7z M152,26c-1.7-1.8-4.1-2.7-6.9-2.7c-7.9,0-11.5,7-11.5,13.5c0,6.6,3.6,13.4,11.5,13.4
		c2.7,0,5-1,6.7-2.7c0,1.2,0,2.3-0.1,2.7c-0.3,4.3-2.4,6.3-6.5,6.3c-2.3,0-4.9-0.8-5.4-3.1l-0.1-0.5l-5.3,0l0.1,0.7
		c0.6,4.6,4.6,7.5,10.6,7.5c5.2,0,8.9-2,10.8-5.7c0.9-1.8,1.3-4.4,1.3-7.8V23.8H152V26z M145.4,45.2c-1.9,0-6.3-0.9-6.3-8.8
		c0-5.2,2.5-8.4,6.4-8.4c3.1,0,6.3,2.2,6.3,8.4C151.9,41.9,149.5,45.2,145.4,45.2 M226.1,42c0,4.2-3.5,8.4-11.2,8.4
		c-6.8,0-10.9-3-11.4-8.3l-0.1-0.6h5.3l0.1,0.4c0.7,3.2,3.7,3.9,6.2,3.9c2.7,0,5.6-0.9,5.6-3.3c0-1.2-0.8-2.1-2.4-2.6
		c-0.9-0.3-2.1-0.6-3.3-0.9c-2.1-0.6-4.3-1.2-5.6-1.7c-3.3-1.2-5.2-3.5-5.2-6.3c0-5.3,5.1-7.6,10.2-7.6c6.8,0,10.3,2.6,10.8,7.8
		l0,0.5l-5.2,0l-0.1-0.4c-0.5-3-3.5-3.5-5.3-3.5c-1.5,0-5,0.3-5,2.8c0,1.1,1,2,3,2.6c0.6,0.2,1.5,0.4,2.5,0.7
		c2.1,0.6,4.8,1.2,6.1,1.7C224.4,36.7,226.1,38.9,226.1,42 M251,42c0,4.2-3.5,8.4-11.2,8.4c-6.8,0-10.9-3-11.4-8.3l-0.1-0.6h5.3
		l0.1,0.4c0.7,3.2,3.7,3.9,6.2,3.9c2.7,0,5.6-0.9,5.6-3.3c0-1.2-0.8-2.1-2.4-2.6c-0.9-0.3-2.1-0.6-3.3-0.9c-2.1-0.6-4.3-1.2-5.6-1.7
		c-3.3-1.2-5.2-3.5-5.2-6.3c0-5.3,5.1-7.6,10.2-7.6c6.8,0,10.3,2.6,10.8,7.8l0,0.5l-5.2,0l-0.1-0.4c-0.5-3-3.5-3.5-5.3-3.5
		c-1.5,0-5,0.3-5,2.8c0,1.1,1,2,3,2.6c0.6,0.2,1.5,0.4,2.5,0.7c2.1,0.6,4.8,1.2,6.1,1.7C249.3,36.7,251,38.9,251,42 M255.3,26.6
		c-2,0-3.7-1.6-3.7-3.7c0-2.2,1.7-3.7,3.7-3.7c2,0,3.7,1.6,3.7,3.7C259,25,257.3,26.6,255.3,26.6 M255.3,19.8c-1.7,0-3,1.3-3,3.1
		c0,1.8,1.3,3.1,3,3.1c1.7,0,3-1.3,3-3.1C258.3,21,257,19.8,255.3,19.8 M254.9,23.5v1.2h-1.1v-3.9h1.8c0.9,0,1.4,0.5,1.4,1.4
		c0,0.6-0.3,1-0.8,1.2l0.9,1.4H256l-0.8-1.2H254.9z M255.5,21.8h-0.6v0.9h0.6c0.3,0,0.5-0.2,0.5-0.4C256,22,255.8,21.8,255.5,21.8"
		/>
</g>
</svg>
