<?xml version="1.0" encoding="utf-8"?>
<!-- Generator: Adobe Illustrator 21.0.2, SVG Export Plug-In . SVG Version: 6.00 Build 0)  -->
<svg version="1.1" id="Layer_1" xmlns="http://www.w3.org/2000/svg" xmlns:xlink="http://www.w3.org/1999/xlink" x="0px" y="0px"
	 viewBox="0 0 410 48" style="enable-background:new 0 0 410 48;" xml:space="preserve">
<style type="text/css">
	.st0{fill:#4B4E52;}
</style>
<path class="st0" d="M2.9,18.7l17.7-16h3.8L5.7,19.5l19.2,18.2H21l-18.1-17v17H0v-35h2.9V18.7z M36.4,35.7c2.9,0,5-0.7,7.1-2.5V36
	c-1.9,1.5-4.4,2.2-7.4,2.2c-7.1,0-11.8-5-11.8-12.9c0-7.8,4.2-13.4,10.9-13.4c6.6,0,10,5,10,12.4v1h-18
	C27.2,32.1,31.2,35.7,36.4,35.7z M27.3,22.9h15.3c-0.2-4.4-2.3-8.6-7.3-8.6C31.2,14.4,28,17.5,27.3,22.9z M49.5,12.4h2.9v4
	c1.5-2.4,4.5-4.6,8.1-4.6c5.8,0,8.8,3.7,8.8,9.1v16.8h-2.8V21.3c0-3.9-2-6.8-6.5-6.8c-3.5,0-6.3,2.5-7.6,5.5v17.7h-2.9V12.4z
	 M92.2,33.9c-1.4,2.2-4.4,4.3-7.9,4.3c-7.5,0-11.1-6.2-11.1-13.2s3.6-13.2,11.1-13.2c3.5,0,6.4,2.1,7.9,4.3V0.7H95v37h-2.8V33.9z
	 M92.2,19.5c-1.7-3.2-4.6-5-7.6-5c-5.3,0-8.4,4.4-8.4,10.5s3.1,10.5,8.4,10.5c3.1,0,5.9-1.8,7.6-5V19.5z M110.6,38.2
	c-6.7,0-11.2-5.4-11.2-13.2s4.5-13.2,11.2-13.2s11.2,5.4,11.2,13.2C121.8,32.9,117.3,38.2,110.6,38.2z M110.6,14.4
	c-5,0-8.3,4.3-8.3,10.7s3.3,10.7,8.3,10.7c5.1,0,8.4-4.3,8.4-10.7S115.6,14.4,110.6,14.4z M135.2,23.9V2.7h2.9v20.8
	c0,8.2,4.4,12,10.5,12c6,0,10.5-3.8,10.5-12V2.7h2.9v21.2c0,9.6-5.9,14.3-13.5,14.3C141.1,38.2,135.2,33.5,135.2,23.9z M171.3,37.7
	h-2.9v-35h2.9V37.7z M205.6,3.3c-0.7-0.4-1.6-0.6-2.6-0.6c-2.7,0-4.6,1.9-4.6,5.5v4.3h5.9V15h-5.9v22.7h-2.8V14.8h-4.1v-2.5h4.1V7.7
	c0-4.6,3-7.7,7.1-7.7c1.1,0,2,0.2,2.9,0.5V3.3z M215.9,38.2c-6.7,0-11.2-5.4-11.2-13.2s4.5-13.2,11.2-13.2s11.2,5.4,11.2,13.2
	C227.1,32.9,222.6,38.2,215.9,38.2z M215.9,14.4c-5,0-8.3,4.3-8.3,10.7s3.3,10.7,8.3,10.7c5.1,0,8.4-4.3,8.4-10.7
	S220.9,14.4,215.9,14.4z M243.3,15c-0.7-0.3-1.4-0.5-2.3-0.5c-3.1,0-5.5,2.2-6.7,5.5v17.7h-2.9V12.4h2.9v4c1.1-2.5,3.7-4.6,6.8-4.6
	c1,0,1.7,0.2,2.2,0.3V15z M273,2.7l13.9,35H284l-4.6-11.5h-15.5l-4.5,11.5h-2.9l13.9-35H273z M264.9,23.6h13.5l-6.7-17.1L264.9,23.6
	z M290,12.4h2.9v4c1.5-2.4,4.5-4.6,8.1-4.6c5.8,0,8.8,3.7,8.8,9.1v16.8H307V21.3c0-3.9-2-6.8-6.5-6.8c-3.5,0-6.3,2.5-7.6,5.5v17.7
	H290V12.4z M332.5,33.5c-1.4,2.1-4.3,4.2-7.8,4.2c-7.4,0-10.9-6.1-10.9-12.9s3.5-12.9,10.9-12.9c3.5,0,6.4,2.1,7.8,4.2v-3.7h2.8
	v23.5c0,8.4-5.6,12-11.6,12c-3.2,0-6-1-7.9-2.4v-3.2c2.5,2.3,5.2,3.1,7.9,3.1c5,0,8.8-3,8.8-9.3L332.5,33.5L332.5,33.5z M332.5,19.4
	c-1.7-3.1-4.5-4.9-7.5-4.9c-5.2,0-8.3,4.3-8.3,10.3s3.1,10.3,8.3,10.3c3,0,5.9-1.8,7.5-4.9V19.4z M360.5,37.7h-2.8v-4
	c-1.5,2.4-4.4,4.6-8,4.6c-5.8,0-8.8-3.7-8.8-9.1V12.4h2.8v16.4c0,3.9,2,6.8,6.5,6.8c3.5,0,6.3-2.5,7.5-5.5V12.4h2.8V37.7z
	 M369.2,37.7h-2.9v-37h2.9V37.7z M389.2,20.1c0-3.4-2.4-5.6-6.3-5.6c-2.9,0-5.3,0.9-7.4,2.2V14c1.7-1.1,4.5-2.1,7.6-2.1
	c5.4,0,8.7,3.1,8.7,8.1v17.7h-2.7v-2.4c-1.1,1.3-3.9,2.8-7,2.8c-5.1,0-9.3-3-9.3-7.8c0-4.7,4.2-7.8,9.5-7.8c3,0,5.8,1.4,6.9,2.7
	L389.2,20.1L389.2,20.1z M389.2,28.7c-0.8-2.2-3.6-3.8-6.7-3.8c-3.6,0-6.9,1.8-6.9,5.4s3.3,5.4,6.9,5.4c3.1,0,5.9-1.6,6.7-3.8V28.7z
	 M409.5,15c-0.7-0.3-1.4-0.5-2.3-0.5c-3.1,0-5.5,2.2-6.7,5.5v17.7h-2.9V12.4h2.9v4c1.1-2.5,3.7-4.6,6.8-4.6c1,0,1.7,0.2,2.2,0.3V15z
	 M179.9,10.2c-2,0-3.7-1.6-3.7-3.7c0-2.2,1.7-3.7,3.7-3.7s3.7,1.6,3.7,3.7C183.6,8.6,181.9,10.2,179.9,10.2 M179.9,3.4
	c-1.7,0-3,1.3-3,3.1s1.3,3.1,3,3.1s3-1.3,3-3.1S181.5,3.4,179.9,3.4 M179.5,7.1v1.2h-1.1V4.5h1.8c0.9,0,1.4,0.5,1.4,1.4
	c0,0.6-0.3,1-0.8,1.2l0.9,1.4h-1.2l-0.8-1.2h-0.2V7.1z M180.1,5.4h-0.6v0.9h0.6c0.3,0,0.5-0.2,0.5-0.4
	C180.6,5.6,180.4,5.4,180.1,5.4"/>
</svg>
