<?xml version="1.0" encoding="utf-8"?>
<!-- Generator: Adobe Illustrator 21.0.2, SVG Export Plug-In . SVG Version: 6.00 Build 0)  -->
<svg version="1.1" id="Layer_1" xmlns="http://www.w3.org/2000/svg" xmlns:xlink="http://www.w3.org/1999/xlink" x="0px" y="0px"
	 viewBox="0 0 410 48" style="enable-background:new 0 0 410 48;" xml:space="preserve">
<style type="text/css">
	.st0{fill:#4B4E52;}
</style>
<path fill="#4B4E52" d="M2.9,18.7l17.7-16h3.8L5.7,19.5l19.2,18.2H21l-18.1-17v17H0v-35h2.9V18.7z M36.4,35.7c2.9,0,5-0.7,7.1-2.5
V36c-1.9,1.5-4.4,2.2-7.4,2.2c-7.1,0-11.8-5-11.8-12.9c0-7.8,4.2-13.4,10.9-13.4c6.6,0,10,5,10,12.4v1h-18
C27.2,32.1,31.2,35.7,36.4,35.7z M27.3,22.9h15.3c-0.2-4.4-2.3-8.6-7.3-8.6C31.2,14.4,28,17.5,27.3,22.9z M49.5,12.4h2.9v4
c1.5-2.4,4.5-4.6,8.1-4.6c5.8,0,8.8,3.7,8.8,9.1v16.8h-2.8V21.3c0-3.9-2-6.8-6.5-6.8c-3.5,0-6.3,2.5-7.6,5.5v17.7h-2.9V12.4z
M92.2,33.9c-1.4,2.2-4.4,4.3-7.9,4.3c-7.5,0-11.1-6.2-11.1-13.2s3.6-13.2,11.1-13.2c3.5,0,6.4,2.1,7.9,4.3V0.7H95v37h-2.8V33.9z
M92.2,19.5c-1.7-3.2-4.6-5-7.6-5c-5.3,0-8.4,4.4-8.4,10.5s3.1,10.5,8.4,10.5c3.1,0,5.9-1.8,7.6-5V19.5z M110.6,38.2
c-6.7,0-11.2-5.4-11.2-13.2s4.5-13.2,11.2-13.2s11.2,5.4,11.2,13.2C121.8,32.9,117.3,38.2,110.6,38.2z M110.6,14.4
c-5,0-8.3,4.3-8.3,10.7s3.3,10.7,8.3,10.7c5.1,0,8.4-4.3,8.4-10.7S115.6,14.4,110.6,14.4z M135.2,23.9V2.7h2.9v20.8
c0,8.2,4.4,12,10.5,12c6,0,10.5-3.8,10.5-12V2.7h2.9v21.2c0,9.6-5.9,14.3-13.5,14.3C141.1,38.2,135.2,33.5,135.2,23.9z M171.3,37.7
h-2.9v-35h2.9V37.7z M205.6,3.3c-0.7-0.4-1.6-0.6-2.6-0.6c-2.7,0-4.6,1.9-4.6,5.5v4.3h5.9V15h-5.9v22.7h-2.8V14.8h-4.1v-2.5h4.1V7.7
c0-4.6,3-7.7,7.1-7.7c1.1,0,2,0.2,2.9,0.5L205.6,3.3L205.6,3.3z M215.9,38.2c-6.7,0-11.2-5.4-11.2-13.2s4.5-13.2,11.2-13.2
s11.2,5.4,11.2,13.2C227.1,32.9,222.6,38.2,215.9,38.2z M215.9,14.4c-5,0-8.3,4.3-8.3,10.7s3.3,10.7,8.3,10.7
c5.1,0,8.4-4.3,8.4-10.7S220.9,14.4,215.9,14.4z M243.3,15c-0.7-0.3-1.4-0.5-2.3-0.5c-3.1,0-5.5,2.2-6.7,5.5v17.7h-2.9V12.4h2.9v4
c1.1-2.5,3.7-4.6,6.8-4.6c1,0,1.7,0.2,2.2,0.3V15z M179.9,10.2c-2,0-3.7-1.6-3.7-3.7c0-2.2,1.7-3.7,3.7-3.7s3.7,1.6,3.7,3.7
C183.6,8.6,181.9,10.2,179.9,10.2 M179.9,3.4c-1.7,0-3,1.3-3,3.1s1.3,3.1,3,3.1s3-1.3,3-3.1S181.5,3.4,179.9,3.4 M179.5,7.1v1.2
h-1.1V4.5h1.8c0.9,0,1.4,0.5,1.4,1.4c0,0.6-0.3,1-0.8,1.2l0.9,1.4h-1.2l-0.8-1.2h-0.2L179.5,7.1L179.5,7.1z M180.1,5.4h-0.6v0.9h0.6
c0.3,0,0.5-0.2,0.5-0.4C180.6,5.6,180.4,5.4,180.1,5.4 M270.8,22.1c5.7-0.5,9.2-3.9,9.2-9.5c0-6.4-4.4-9.9-11.3-9.9h-12.2v35h2.8
V22.1h8.3l10.4,15.5h3.4L270.8,22.1z M259.5,20v-0.2V5.5h9c5.3,0,8.5,2.6,8.5,7.2c0,4.6-3.2,7.2-8.5,7.2H259.5z M304.2,24.3
c0-7.2-3.4-12.2-10.1-12.2c-6.7,0-11,5.7-11,13.4c0,7.9,4.8,12.9,11.8,12.9c3,0,5.5-0.7,7.4-2.3v-2.8c-2.1,1.8-4.2,2.5-7.1,2.5
c-5.3,0-9.2-3.5-9.2-10.4h18V24.3z M286.2,23c0.7-5.5,3.9-8.5,8.1-8.5c4.9,0,7.1,4.1,7.2,8.5H286.2z M316.9,12.1
c-3.2,0-6,0.9-7.6,2.1v2.6c2.1-1.4,4.4-2.3,7.4-2.3c3.9,0,6.4,2.3,6.4,5.7v5.1c-1.1-1.2-3.9-2.6-6.9-2.6c-5.3,0-9.5,3-9.5,7.8
s4.2,7.8,9.4,7.8c3.2,0,6-1.4,7.1-2.8v2.5h2.6V20.2C325.8,15.1,322.2,12.1,316.9,12.1z M322.9,32c-0.9,2.1-3.7,3.7-6.7,3.7
c-3.5,0-6.9-1.8-6.9-5.5c0-3.7,3.4-5.3,6.9-5.3c3,0,6,1.6,6.7,3.7V32z M341.8,12.1c2.5,0,4.9,0.7,6.7,2.3v2.8
c-1.9-1.8-4.1-2.6-6.5-2.6c-4.9,0-9,3.9-9,10.6s4.1,10.6,9,10.6c2.5,0,4.6-0.7,6.5-2.6v2.8c-1.8,1.6-4.2,2.3-6.7,2.3
c-6.7,0-11.8-5.1-11.8-13.2C330.2,17.2,335.1,12.1,341.8,12.1z M365.5,12.6v2.5h-6v22.8h-2.8V15.1h-5.5v-2.5h5.5V6.1h2.8v6.5H365.5z
"/>
</svg>
